<svg width="22" height="21" viewBox="0 0 22 21" fill="none" xmlns="http://www.w3.org/2000/svg">
<path fill-rule="evenodd" clip-rule="evenodd" d="M9.98804 0.677962C9.81714 0.682844 9.64917 0.790266 9.60718 1.00023L8.24683 7.93187C8.21558 8.09105 8.09058 8.21605 7.9314 8.2473L0.999756 9.60765C0.569092 9.69261 0.569092 10.3078 0.999756 10.3928L7.9314 11.7532C8.09058 11.7844 8.21558 11.9094 8.24683 12.0686L9.60718 19.0002C9.69214 19.4309 10.3074 19.4309 10.3923 19.0002L11.7527 12.0686C11.7839 11.9094 11.9089 11.7844 12.0681 11.7532L18.9998 10.3928C19.4304 10.3078 19.4304 9.69261 18.9998 9.60765L12.0681 8.2473C11.9089 8.21605 11.7839 8.09105 11.7527 7.93187L10.3923 1.00023C10.3494 0.779524 10.1667 0.672102 9.98804 0.677962ZM17.8923 13.0002C17.8074 12.5696 17.1921 12.5696 17.1072 13.0002L16.6492 15.3342C16.6179 15.4934 16.4929 15.6184 16.3337 15.6496L13.9998 16.1076C13.5691 16.1926 13.5691 16.8078 13.9998 16.8928L16.3337 17.3508C16.4929 17.3821 16.6179 17.5071 16.6492 17.6662L17.1072 20.0002C17.1921 20.4309 17.8074 20.4309 17.8923 20.0002L18.3503 17.6662C18.3816 17.5071 18.5066 17.3821 18.6658 17.3508L20.9998 16.8928C21.4304 16.8078 21.4304 16.1926 20.9998 16.1076L18.6658 15.6496C18.5066 15.6184 18.3816 15.4934 18.3503 15.3342L17.8923 13.0002Z" fill="white"/>
</svg>
